<mxfile host="app.diagrams.net" modified="2021-03-24T19:20:15.245Z" agent="5.0 (X11; Linux x86_64) AppleWebKit/537.36 (KHTML, like Gecko) Chrome/89.0.4389.82 Safari/537.36" etag="wKfb7Jrf1KeNIhFL3B7m" version="14.5.1" type="github">
  <diagram id="5SE5TFD1s6Gj8SGZD6Q0" name="Page-1">
    <mxGraphModel dx="1080" dy="645" grid="1" gridSize="10" guides="1" tooltips="1" connect="1" arrows="1" fold="1" page="1" pageScale="1" pageWidth="850" pageHeight="1100" math="0" shadow="0">
      <root>
        <mxCell id="0" />
        <mxCell id="1" parent="0" />
        <mxCell id="H2ACelYNITPwv9d6Ty6e-13" style="edgeStyle=orthogonalEdgeStyle;rounded=0;orthogonalLoop=1;jettySize=auto;html=1;entryX=0;entryY=0.25;entryDx=0;entryDy=0;startArrow=classic;startFill=1;" parent="1" source="H2ACelYNITPwv9d6Ty6e-1" target="H2ACelYNITPwv9d6Ty6e-12" edge="1">
          <mxGeometry relative="1" as="geometry" />
        </mxCell>
        <mxCell id="H2ACelYNITPwv9d6Ty6e-1" value="Service" style="outlineConnect=0;dashed=0;verticalLabelPosition=bottom;verticalAlign=top;align=center;html=1;shape=mxgraph.aws3.instance;fillColor=#F58534;gradientColor=none;" parent="1" vertex="1">
          <mxGeometry x="250" y="210" width="60" height="63" as="geometry" />
        </mxCell>
        <mxCell id="H2ACelYNITPwv9d6Ty6e-14" style="edgeStyle=orthogonalEdgeStyle;rounded=0;orthogonalLoop=1;jettySize=auto;html=1;entryX=0;entryY=0.5;entryDx=0;entryDy=0;startArrow=classic;startFill=1;" parent="1" source="H2ACelYNITPwv9d6Ty6e-2" target="H2ACelYNITPwv9d6Ty6e-12" edge="1">
          <mxGeometry relative="1" as="geometry" />
        </mxCell>
        <mxCell id="H2ACelYNITPwv9d6Ty6e-2" value="Service" style="outlineConnect=0;dashed=0;verticalLabelPosition=bottom;verticalAlign=top;align=center;html=1;shape=mxgraph.aws3.instance;fillColor=#F58534;gradientColor=none;" parent="1" vertex="1">
          <mxGeometry x="250" y="300" width="60" height="63" as="geometry" />
        </mxCell>
        <mxCell id="H2ACelYNITPwv9d6Ty6e-15" style="edgeStyle=orthogonalEdgeStyle;rounded=0;orthogonalLoop=1;jettySize=auto;html=1;startArrow=classic;startFill=1;" parent="1" source="H2ACelYNITPwv9d6Ty6e-3" target="H2ACelYNITPwv9d6Ty6e-12" edge="1">
          <mxGeometry relative="1" as="geometry">
            <Array as="points">
              <mxPoint x="340" y="422" />
              <mxPoint x="340" y="380" />
            </Array>
          </mxGeometry>
        </mxCell>
        <mxCell id="H2ACelYNITPwv9d6Ty6e-3" value="Service" style="outlineConnect=0;dashed=0;verticalLabelPosition=bottom;verticalAlign=top;align=center;html=1;shape=mxgraph.aws3.instance;fillColor=#F58534;gradientColor=none;" parent="1" vertex="1">
          <mxGeometry x="250" y="390" width="60" height="63" as="geometry" />
        </mxCell>
        <mxCell id="H2ACelYNITPwv9d6Ty6e-5" style="edgeStyle=orthogonalEdgeStyle;rounded=0;orthogonalLoop=1;jettySize=auto;html=1;" parent="1" source="H2ACelYNITPwv9d6Ty6e-4" target="H2ACelYNITPwv9d6Ty6e-1" edge="1">
          <mxGeometry relative="1" as="geometry">
            <Array as="points">
              <mxPoint x="200" y="332" />
              <mxPoint x="200" y="242" />
            </Array>
          </mxGeometry>
        </mxCell>
        <mxCell id="H2ACelYNITPwv9d6Ty6e-6" style="edgeStyle=orthogonalEdgeStyle;rounded=0;orthogonalLoop=1;jettySize=auto;html=1;" parent="1" source="H2ACelYNITPwv9d6Ty6e-4" target="H2ACelYNITPwv9d6Ty6e-2" edge="1">
          <mxGeometry relative="1" as="geometry" />
        </mxCell>
        <mxCell id="H2ACelYNITPwv9d6Ty6e-7" style="edgeStyle=orthogonalEdgeStyle;rounded=0;orthogonalLoop=1;jettySize=auto;html=1;" parent="1" source="H2ACelYNITPwv9d6Ty6e-4" target="H2ACelYNITPwv9d6Ty6e-3" edge="1">
          <mxGeometry relative="1" as="geometry">
            <Array as="points">
              <mxPoint x="200" y="332" />
              <mxPoint x="200" y="422" />
            </Array>
          </mxGeometry>
        </mxCell>
        <mxCell id="H2ACelYNITPwv9d6Ty6e-4" value="" style="verticalLabelPosition=bottom;html=1;verticalAlign=top;align=center;strokeColor=none;fillColor=#00BEF2;shape=mxgraph.azure.load_balancer_generic;pointerEvents=1;" parent="1" vertex="1">
          <mxGeometry x="100" y="307" width="37.5" height="50" as="geometry" />
        </mxCell>
        <mxCell id="H2ACelYNITPwv9d6Ty6e-8" value="Old Database" style="aspect=fixed;perimeter=ellipsePerimeter;html=1;align=center;shadow=0;dashed=0;spacingTop=3;image;image=img/lib/active_directory/database.svg;" parent="1" vertex="1">
          <mxGeometry x="660" y="191" width="94.59" height="70" as="geometry" />
        </mxCell>
        <mxCell id="H2ACelYNITPwv9d6Ty6e-9" value="New Database" style="aspect=fixed;perimeter=ellipsePerimeter;html=1;align=center;shadow=0;dashed=0;spacingTop=3;image;image=img/lib/active_directory/database.svg;" parent="1" vertex="1">
          <mxGeometry x="670" y="437.5" width="94.59" height="70" as="geometry" />
        </mxCell>
        <mxCell id="H2ACelYNITPwv9d6Ty6e-31" value="Working with source database" style="edgeStyle=orthogonalEdgeStyle;rounded=0;orthogonalLoop=1;jettySize=auto;html=1;startArrow=classic;startFill=1;" parent="1" edge="1">
          <mxGeometry relative="1" as="geometry">
            <mxPoint x="430" y="231.0344827586207" as="sourcePoint" />
            <mxPoint x="662.3811120377204" y="231.0344827586207" as="targetPoint" />
            <Array as="points">
              <mxPoint x="510" y="231" />
              <mxPoint x="510" y="231" />
            </Array>
          </mxGeometry>
        </mxCell>
        <mxCell id="H2ACelYNITPwv9d6Ty6e-33" value="replicate set/del" style="edgeStyle=orthogonalEdgeStyle;rounded=0;orthogonalLoop=1;jettySize=auto;html=1;startArrow=none;startFill=0;" parent="1" source="H2ACelYNITPwv9d6Ty6e-12" target="H2ACelYNITPwv9d6Ty6e-30" edge="1">
          <mxGeometry relative="1" as="geometry" />
        </mxCell>
        <mxCell id="H2ACelYNITPwv9d6Ty6e-43" value="Switch to target database" style="edgeStyle=orthogonalEdgeStyle;rounded=0;orthogonalLoop=1;jettySize=auto;html=1;startArrow=classic;startFill=1;" parent="1" target="H2ACelYNITPwv9d6Ty6e-9" edge="1">
          <mxGeometry relative="1" as="geometry">
            <mxPoint x="770" y="576" as="targetPoint" />
            <mxPoint x="389" y="460" as="sourcePoint" />
            <Array as="points">
              <mxPoint x="389" y="590" />
              <mxPoint x="717" y="590" />
            </Array>
          </mxGeometry>
        </mxCell>
        <mxCell id="H2ACelYNITPwv9d6Ty6e-89" style="edgeStyle=orthogonalEdgeStyle;rounded=0;orthogonalLoop=1;jettySize=auto;html=1;startArrow=classic;startFill=1;" parent="1" source="H2ACelYNITPwv9d6Ty6e-12" target="H2ACelYNITPwv9d6Ty6e-30" edge="1">
          <mxGeometry relative="1" as="geometry">
            <mxPoint x="580" y="360.0000000000001" as="targetPoint" />
            <Array as="points">
              <mxPoint x="550" y="370" />
              <mxPoint x="550" y="310" />
            </Array>
          </mxGeometry>
        </mxCell>
        <mxCell id="H2ACelYNITPwv9d6Ty6e-90" value="key in last events" style="edgeLabel;html=1;align=center;verticalAlign=middle;resizable=0;points=[];" parent="H2ACelYNITPwv9d6Ty6e-89" vertex="1" connectable="0">
          <mxGeometry x="-0.241" y="1" relative="1" as="geometry">
            <mxPoint x="-15.86" y="1.03" as="offset" />
          </mxGeometry>
        </mxCell>
        <mxCell id="H2ACelYNITPwv9d6Ty6e-96" value="yes" style="edgeLabel;html=1;align=center;verticalAlign=middle;resizable=0;points=[];" parent="H2ACelYNITPwv9d6Ty6e-89" vertex="1" connectable="0">
          <mxGeometry x="0.3252" y="2" relative="1" as="geometry">
            <mxPoint as="offset" />
          </mxGeometry>
        </mxCell>
        <mxCell id="H2ACelYNITPwv9d6Ty6e-12" value="Middleware" style="rounded=0;whiteSpace=wrap;html=1;" parent="1" vertex="1">
          <mxGeometry x="360" y="207" width="70" height="250" as="geometry" />
        </mxCell>
        <mxCell id="H2ACelYNITPwv9d6Ty6e-19" style="edgeStyle=orthogonalEdgeStyle;rounded=0;orthogonalLoop=1;jettySize=auto;html=1;startArrow=classic;startFill=1;" parent="1" source="H2ACelYNITPwv9d6Ty6e-18" target="H2ACelYNITPwv9d6Ty6e-8" edge="1">
          <mxGeometry relative="1" as="geometry" />
        </mxCell>
        <mxCell id="H2ACelYNITPwv9d6Ty6e-60" value="&lt;span style=&quot;font-size: 12px ; background-color: rgb(248 , 249 , 250)&quot;&gt;Preliminary&lt;/span&gt;&lt;br style=&quot;font-size: 12px ; background-color: rgb(248 , 249 , 250)&quot;&gt;&lt;span style=&quot;font-size: 12px ; background-color: rgb(248 , 249 , 250)&quot;&gt;&amp;nbsp;DB Dump&lt;/span&gt;" style="edgeLabel;html=1;align=center;verticalAlign=middle;resizable=0;points=[];" parent="H2ACelYNITPwv9d6Ty6e-19" vertex="1" connectable="0">
          <mxGeometry x="0.1223" y="-2" relative="1" as="geometry">
            <mxPoint as="offset" />
          </mxGeometry>
        </mxCell>
        <mxCell id="H2ACelYNITPwv9d6Ty6e-22" value="write" style="edgeStyle=orthogonalEdgeStyle;rounded=0;orthogonalLoop=1;jettySize=auto;html=1;startArrow=none;startFill=0;" parent="1" source="H2ACelYNITPwv9d6Ty6e-18" target="H2ACelYNITPwv9d6Ty6e-9" edge="1">
          <mxGeometry x="0.5017" relative="1" as="geometry">
            <Array as="points">
              <mxPoint x="950" y="439" />
            </Array>
            <mxPoint as="offset" />
          </mxGeometry>
        </mxCell>
        <mxCell id="H2ACelYNITPwv9d6Ty6e-18" value="Data loader" style="shape=ellipse;html=1;dashed=0;whitespace=wrap;perimeter=ellipsePerimeter;" parent="1" vertex="1">
          <mxGeometry x="910" y="191" width="80" height="70" as="geometry" />
        </mxCell>
        <mxCell id="H2ACelYNITPwv9d6Ty6e-30" value="event queue" style="outlineConnect=0;dashed=0;verticalLabelPosition=bottom;verticalAlign=top;align=center;html=1;shape=mxgraph.aws3.queue;fillColor=#D9A741;gradientColor=none;" parent="1" vertex="1">
          <mxGeometry x="570" y="273" width="73.5" height="48" as="geometry" />
        </mxCell>
        <mxCell id="H2ACelYNITPwv9d6Ty6e-35" value="Drain events" style="edgeStyle=orthogonalEdgeStyle;rounded=0;orthogonalLoop=1;jettySize=auto;html=1;startArrow=classic;startFill=1;" parent="1" source="H2ACelYNITPwv9d6Ty6e-34" target="H2ACelYNITPwv9d6Ty6e-30" edge="1">
          <mxGeometry relative="1" as="geometry">
            <Array as="points">
              <mxPoint x="540" y="420" />
              <mxPoint x="607" y="420" />
            </Array>
          </mxGeometry>
        </mxCell>
        <mxCell id="H2ACelYNITPwv9d6Ty6e-36" style="edgeStyle=orthogonalEdgeStyle;rounded=0;orthogonalLoop=1;jettySize=auto;html=1;entryX=0;entryY=0.75;entryDx=0;entryDy=0;startArrow=none;startFill=0;exitX=1;exitY=0.5;exitDx=0;exitDy=0;" parent="1" source="H2ACelYNITPwv9d6Ty6e-34" target="H2ACelYNITPwv9d6Ty6e-9" edge="1">
          <mxGeometry relative="1" as="geometry">
            <mxPoint x="590" y="535" as="sourcePoint" />
            <Array as="points">
              <mxPoint x="580" y="506" />
              <mxPoint x="620" y="506" />
              <mxPoint x="620" y="478" />
            </Array>
          </mxGeometry>
        </mxCell>
        <mxCell id="H2ACelYNITPwv9d6Ty6e-78" value="write" style="edgeLabel;html=1;align=center;verticalAlign=middle;resizable=0;points=[];" parent="H2ACelYNITPwv9d6Ty6e-36" vertex="1" connectable="0">
          <mxGeometry x="-0.3347" relative="1" as="geometry">
            <mxPoint as="offset" />
          </mxGeometry>
        </mxCell>
        <mxCell id="H2ACelYNITPwv9d6Ty6e-93" value="Most event drained" style="edgeStyle=orthogonalEdgeStyle;rounded=0;orthogonalLoop=1;jettySize=auto;html=1;startArrow=none;startFill=0;" parent="1" source="H2ACelYNITPwv9d6Ty6e-34" edge="1">
          <mxGeometry x="-0.0114" y="10" relative="1" as="geometry">
            <mxPoint x="430" y="430" as="targetPoint" />
            <Array as="points">
              <mxPoint x="460" y="526" />
              <mxPoint x="460" y="430" />
            </Array>
            <mxPoint as="offset" />
          </mxGeometry>
        </mxCell>
        <mxCell id="H2ACelYNITPwv9d6Ty6e-34" value="Data loader" style="shape=ellipse;html=1;dashed=0;whitespace=wrap;perimeter=ellipsePerimeter;" parent="1" vertex="1">
          <mxGeometry x="500" y="466" width="80" height="70" as="geometry" />
        </mxCell>
        <mxCell id="H2ACelYNITPwv9d6Ty6e-38" style="edgeStyle=orthogonalEdgeStyle;rounded=0;orthogonalLoop=1;jettySize=auto;html=1;startArrow=classic;startFill=1;" parent="1" source="H2ACelYNITPwv9d6Ty6e-37" target="H2ACelYNITPwv9d6Ty6e-8" edge="1">
          <mxGeometry relative="1" as="geometry">
            <mxPoint x="700" y="281" as="targetPoint" />
            <Array as="points">
              <mxPoint x="800" y="251" />
            </Array>
          </mxGeometry>
        </mxCell>
        <mxCell id="H2ACelYNITPwv9d6Ty6e-39" style="edgeStyle=orthogonalEdgeStyle;rounded=0;orthogonalLoop=1;jettySize=auto;html=1;startArrow=classic;startFill=1;" parent="1" source="H2ACelYNITPwv9d6Ty6e-37" target="H2ACelYNITPwv9d6Ty6e-9" edge="1">
          <mxGeometry relative="1" as="geometry" />
        </mxCell>
        <mxCell id="H2ACelYNITPwv9d6Ty6e-73" style="edgeStyle=orthogonalEdgeStyle;rounded=0;orthogonalLoop=1;jettySize=auto;html=1;startArrow=none;startFill=0;entryX=0.995;entryY=0.392;entryDx=0;entryDy=0;entryPerimeter=0;" parent="1" source="H2ACelYNITPwv9d6Ty6e-37" target="H2ACelYNITPwv9d6Ty6e-41" edge="1">
          <mxGeometry relative="1" as="geometry">
            <mxPoint x="480" y="60" as="targetPoint" />
            <Array as="points">
              <mxPoint x="860" y="329" />
              <mxPoint x="860" y="67" />
              <mxPoint x="442" y="67" />
            </Array>
          </mxGeometry>
        </mxCell>
        <mxCell id="H2ACelYNITPwv9d6Ty6e-74" value="Data validation report" style="edgeLabel;html=1;align=center;verticalAlign=middle;resizable=0;points=[];" parent="H2ACelYNITPwv9d6Ty6e-73" vertex="1" connectable="0">
          <mxGeometry x="0.3386" y="-2" relative="1" as="geometry">
            <mxPoint as="offset" />
          </mxGeometry>
        </mxCell>
        <mxCell id="H2ACelYNITPwv9d6Ty6e-37" value="Data validation" style="ellipse;whiteSpace=wrap;html=1;" parent="1" vertex="1">
          <mxGeometry x="780" y="294" width="70" height="70" as="geometry" />
        </mxCell>
        <mxCell id="H2ACelYNITPwv9d6Ty6e-42" style="edgeStyle=orthogonalEdgeStyle;rounded=0;orthogonalLoop=1;jettySize=auto;html=1;startArrow=none;startFill=0;" parent="1" source="H2ACelYNITPwv9d6Ty6e-41" target="H2ACelYNITPwv9d6Ty6e-12" edge="1">
          <mxGeometry relative="1" as="geometry" />
        </mxCell>
        <mxCell id="H2ACelYNITPwv9d6Ty6e-41" value="Request&lt;br&gt;DB Switch&amp;nbsp;" style="shape=ellipse;html=1;dashed=0;whitespace=wrap;perimeter=ellipsePerimeter;" parent="1" vertex="1">
          <mxGeometry x="355" y="40" width="80" height="70" as="geometry" />
        </mxCell>
        <mxCell id="H2ACelYNITPwv9d6Ty6e-58" value="Trigger eventual sync" style="edgeStyle=orthogonalEdgeStyle;rounded=0;orthogonalLoop=1;jettySize=auto;html=1;exitX=0.5;exitY=0;exitDx=0;exitDy=0;startArrow=none;startFill=0;" parent="1" source="H2ACelYNITPwv9d6Ty6e-18" target="H2ACelYNITPwv9d6Ty6e-30" edge="1">
          <mxGeometry x="-0.1945" relative="1" as="geometry">
            <Array as="points">
              <mxPoint x="945" y="191" />
              <mxPoint x="945" y="141" />
              <mxPoint x="597" y="141" />
            </Array>
            <mxPoint as="offset" />
          </mxGeometry>
        </mxCell>
        <mxCell id="H2ACelYNITPwv9d6Ty6e-72" value="Completed" style="edgeLabel;html=1;align=center;verticalAlign=middle;resizable=0;points=[];" parent="H2ACelYNITPwv9d6Ty6e-58" vertex="1" connectable="0">
          <mxGeometry x="-0.917" y="1" relative="1" as="geometry">
            <mxPoint as="offset" />
          </mxGeometry>
        </mxCell>
        <mxCell id="H2ACelYNITPwv9d6Ty6e-59" value="&lt;b&gt;&lt;font style=&quot;font-size: 17px&quot;&gt;2&lt;/font&gt;&lt;/b&gt;" style="text;html=1;strokeColor=none;fillColor=none;align=center;verticalAlign=middle;whiteSpace=wrap;rounded=0;" parent="1" vertex="1">
          <mxGeometry x="795" y="191" width="40" height="20" as="geometry" />
        </mxCell>
        <mxCell id="H2ACelYNITPwv9d6Ty6e-61" value="&lt;b&gt;&lt;font style=&quot;font-size: 17px&quot;&gt;3&lt;/font&gt;&lt;/b&gt;" style="text;html=1;strokeColor=none;fillColor=none;align=center;verticalAlign=middle;whiteSpace=wrap;rounded=0;" parent="1" vertex="1">
          <mxGeometry x="910" y="405" width="40" height="20" as="geometry" />
        </mxCell>
        <mxCell id="H2ACelYNITPwv9d6Ty6e-62" value="&lt;b&gt;&lt;font style=&quot;font-size: 17px&quot;&gt;4&lt;/font&gt;&lt;/b&gt;" style="text;html=1;strokeColor=none;fillColor=none;align=center;verticalAlign=middle;whiteSpace=wrap;rounded=0;" parent="1" vertex="1">
          <mxGeometry x="754.59" y="110" width="40" height="20" as="geometry" />
        </mxCell>
        <mxCell id="H2ACelYNITPwv9d6Ty6e-63" value="&lt;b&gt;&lt;font style=&quot;font-size: 17px&quot;&gt;5&lt;/font&gt;&lt;/b&gt;" style="text;html=1;strokeColor=none;fillColor=none;align=center;verticalAlign=middle;whiteSpace=wrap;rounded=0;" parent="1" vertex="1">
          <mxGeometry x="490" y="273" width="40" height="20" as="geometry" />
        </mxCell>
        <mxCell id="H2ACelYNITPwv9d6Ty6e-65" value="&lt;span style=&quot;font-size: 17px&quot;&gt;&lt;b&gt;6&lt;/b&gt;&lt;/span&gt;" style="text;html=1;strokeColor=none;fillColor=none;align=center;verticalAlign=middle;whiteSpace=wrap;rounded=0;" parent="1" vertex="1">
          <mxGeometry x="550" y="437.5" width="40" height="20" as="geometry" />
        </mxCell>
        <mxCell id="H2ACelYNITPwv9d6Ty6e-66" value="&lt;b&gt;&lt;font style=&quot;font-size: 17px&quot;&gt;9&lt;/font&gt;&lt;/b&gt;" style="text;html=1;strokeColor=none;fillColor=none;align=center;verticalAlign=middle;whiteSpace=wrap;rounded=0;" parent="1" vertex="1">
          <mxGeometry x="390" y="131" width="40" height="20" as="geometry" />
        </mxCell>
        <mxCell id="H2ACelYNITPwv9d6Ty6e-68" value="&lt;b&gt;&lt;font style=&quot;font-size: 17px&quot;&gt;8&lt;/font&gt;&lt;/b&gt;" style="text;html=1;strokeColor=none;fillColor=none;align=center;verticalAlign=middle;whiteSpace=wrap;rounded=0;" parent="1" vertex="1">
          <mxGeometry x="425" y="500" width="40" height="20" as="geometry" />
        </mxCell>
        <mxCell id="H2ACelYNITPwv9d6Ty6e-71" value="&lt;b&gt;&lt;font style=&quot;font-size: 17px&quot;&gt;1&lt;/font&gt;&lt;/b&gt;" style="text;html=1;strokeColor=none;fillColor=none;align=center;verticalAlign=middle;whiteSpace=wrap;rounded=0;" parent="1" vertex="1">
          <mxGeometry x="520" y="201" width="40" height="20" as="geometry" />
        </mxCell>
        <mxCell id="H2ACelYNITPwv9d6Ty6e-76" value="&lt;b&gt;&lt;font style=&quot;font-size: 17px&quot;&gt;7&lt;/font&gt;&lt;/b&gt;" style="text;html=1;strokeColor=none;fillColor=none;align=center;verticalAlign=middle;whiteSpace=wrap;rounded=0;" parent="1" vertex="1">
          <mxGeometry x="643.5" y="40" width="40" height="20" as="geometry" />
        </mxCell>
        <mxCell id="H2ACelYNITPwv9d6Ty6e-95" style="edgeStyle=orthogonalEdgeStyle;rounded=0;orthogonalLoop=1;jettySize=auto;html=1;entryX=0.25;entryY=0;entryDx=0;entryDy=0;startArrow=classic;startFill=1;" parent="1" target="H2ACelYNITPwv9d6Ty6e-9" edge="1">
          <mxGeometry relative="1" as="geometry">
            <mxPoint x="500" y="380" as="sourcePoint" />
            <Array as="points">
              <mxPoint x="500" y="400" />
              <mxPoint x="696" y="400" />
            </Array>
          </mxGeometry>
        </mxCell>
        <mxCell id="H2ACelYNITPwv9d6Ty6e-97" value="no" style="edgeLabel;html=1;align=center;verticalAlign=middle;resizable=0;points=[];" parent="H2ACelYNITPwv9d6Ty6e-95" vertex="1" connectable="0">
          <mxGeometry x="-0.5123" relative="1" as="geometry">
            <mxPoint as="offset" />
          </mxGeometry>
        </mxCell>
        <mxCell id="H2ACelYNITPwv9d6Ty6e-88" value="&lt;b&gt;&lt;font style=&quot;font-size: 17px&quot;&gt;11&lt;/font&gt;&lt;/b&gt;" style="text;html=1;strokeColor=none;fillColor=none;align=center;verticalAlign=middle;whiteSpace=wrap;rounded=0;" parent="1" vertex="1">
          <mxGeometry x="480" y="344" width="40" height="20" as="geometry" />
        </mxCell>
        <mxCell id="H2ACelYNITPwv9d6Ty6e-91" value="&lt;b&gt;&lt;font style=&quot;font-size: 17px&quot;&gt;12&lt;/font&gt;&lt;/b&gt;" style="text;html=1;strokeColor=none;fillColor=none;align=center;verticalAlign=middle;whiteSpace=wrap;rounded=0;" parent="1" vertex="1">
          <mxGeometry x="510" y="600" width="40" height="20" as="geometry" />
        </mxCell>
        <mxCell id="7jPoYOZYRZy_Vy0SwzWh-4" value="K,V" style="whiteSpace=wrap;html=1;aspect=fixed;" vertex="1" parent="1">
          <mxGeometry x="412.5" y="339" width="30" height="30" as="geometry" />
        </mxCell>
      </root>
    </mxGraphModel>
  </diagram>
</mxfile>
